<?xml version="1.0" encoding="UTF-8"?>
<svg id="Layer_1" xmlns="http://www.w3.org/2000/svg" version="1.1" xmlns:xlink="http://www.w3.org/1999/xlink" viewBox="0 0 665.53 176.47">
  <!-- Generator: Adobe Illustrator 29.8.3, SVG Export Plug-In . SVG Version: 2.1.1 Build 3)  -->
  <defs>
    <style>
      .st0 {
        fill: url(#radial-gradient);
      }

      .st1 {
        fill: #0e1020;
      }
    </style>
    <radialGradient id="radial-gradient" cx="-63.74" cy="395.49" fx="-63.74" fy="395.49" r="1" gradientTransform="translate(41030.99 55654.62) rotate(-15.76) scale(377.59 -163.25)" gradientUnits="userSpaceOnUse">
      <stop offset="0" stop-color="#ffb87e"/>
      <stop offset=".16" stop-color="#ffa962"/>
      <stop offset=".34" stop-color="#fea15f"/>
      <stop offset=".56" stop-color="#ff7e51"/>
      <stop offset=".84" stop-color="#b88a99"/>
      <stop offset="1" stop-color="#6399f0"/>
    </radialGradient>
  </defs>
  <path class="st0" d="M143.63,0c29.67,0,53.81,24.09,53.81,53.72s-24.14,53.72-53.81,53.72H0v-21.93h143.63c17.58,0,31.88-14.26,31.88-31.79s-14.3-31.79-31.88-31.79H0V0h143.63ZM665.53,21.93h-143.63c-17.58,0-31.88,14.26-31.88,31.79s14.3,31.79,31.88,31.79h143.63v21.93h-143.63c-29.68,0-53.81-24.09-53.81-53.72S492.23,0,521.9,0h143.63v21.93ZM447.09,21.93c-23.47,0-39.96,10.38-57.41,21.37-5.66,3.57-11.4,7.17-17.39,10.38,5.98,3.21,11.72,6.81,17.39,10.38,17.45,10.99,33.93,21.37,57.41,21.37v21.93c-29.81,0-50.68-13.14-69.09-24.74-15.31-9.64-28.53-17.97-44.73-17.97s-29.42,8.32-44.73,17.97c-18.42,11.59-39.29,24.74-69.09,24.74v-21.93c23.47,0,39.96-10.38,57.41-21.37,5.66-3.57,11.4-7.17,17.39-10.38-5.98-3.21-11.72-6.81-17.39-10.38-17.45-10.99-33.93-21.37-57.41-21.37V0c29.81,0,50.68,13.14,69.09,24.75,15.31,9.63,28.53,17.97,44.73,17.97h0c16.2-.01,29.42-8.33,44.73-17.98C396.42,13.14,417.29,0,447.09,0v21.93Z"/>
  <path class="st1" d="M90.68,175.97v-21.73h4.81v21.73h-4.81Z"/>
  <path class="st1" d="M100.31,175.97v-21.73h6.84l6.26,12.21,1.97,4.32h.03l1.97-4.32,6.26-12.21h6.85v21.73h-4.59v-16.56l-2,4.04-6.44,12.52h-4.1l-2.77-5.4-3.7-7.12-1.97-4.04v16.56h-4.59Z"/>
  <path class="st1" d="M135.32,175.97v-21.73h14.71c5.06,0,7.98,2.43,7.98,7.09s-2.96,7.09-7.98,7.09h-9.9v7.55h-4.81ZM149.16,164.66c2.53,0,3.82-1.14,3.82-3.33s-1.29-3.33-3.82-3.33h-9.03v6.66h9.03Z"/>
  <path class="st1" d="M175.34,176.47c-9.59,0-14.67-4.1-14.67-11.38s5.09-11.35,14.67-11.35,14.64,4.13,14.64,11.35-5.09,11.38-14.64,11.38ZM175.34,172.43c6.44,0,9.59-2.56,9.59-7.34s-3.18-7.31-9.59-7.31-9.62,2.56-9.62,7.34,3.14,7.31,9.62,7.31Z"/>
  <path class="st1" d="M205.32,176.47c-8.39,0-12.15-2.5-12.27-7.55h5.09c.16,2.74,2.34,4.07,7.25,4.07s6.78-.96,6.78-3.21c0-1.73-.92-2.5-3.51-2.74l-7.95-.59c-5.06-.46-7.09-2.34-7.09-5.98,0-4.41,3.61-6.72,11.59-6.72s11.68,2.34,11.96,7.37h-5.09c-.25-2.81-2.25-3.89-6.88-3.89s-6.57.92-6.57,2.93c0,1.63,1.05,2.28,3.54,2.53l7.92.59c5.12.49,7.09,2.34,7.09,6.2,0,4.69-3.79,7-11.87,7Z"/>
  <path class="st1" d="M232.83,176.47c-8.39,0-12.15-2.5-12.27-7.55h5.09c.15,2.74,2.34,4.07,7.24,4.07s6.78-.96,6.78-3.21c0-1.73-.92-2.5-3.51-2.74l-7.95-.59c-5.06-.46-7.09-2.34-7.09-5.98,0-4.41,3.61-6.72,11.59-6.72s11.68,2.34,11.96,7.37h-5.09c-.25-2.81-2.25-3.89-6.88-3.89s-6.57.92-6.57,2.93c0,1.63,1.05,2.28,3.54,2.53l7.92.59c5.12.49,7.09,2.34,7.09,6.2,0,4.69-3.79,7-11.87,7Z"/>
  <path class="st1" d="M248.82,175.97v-21.73h4.81v21.73h-4.81Z"/>
  <path class="st1" d="M258.44,175.97v-21.73h15.75c4.38,0,6.85,2.07,6.85,5.67,0,2.28-1.17,3.91-3.27,4.56,2.5.68,3.79,2.56,3.79,5.36,0,3.95-2.5,6.14-7.06,6.14h-16.06ZM273.18,172.58c2.22,0,3.36-1.11,3.36-3.08s-1.17-3.11-3.36-3.11h-9.93v6.2h9.93ZM272.72,163.24c2.13,0,3.3-1.02,3.3-2.8s-1.17-2.81-3.3-2.81h-9.46v5.61h9.46Z"/>
  <path class="st1" d="M285.56,175.97v-21.73h4.81v17.6h13.38v4.13h-18.19Z"/>
  <path class="st1" d="M306.96,175.97v-21.73h20.07v3.67h-15.26v5.12h14.77v3.61h-14.77v5.67h15.26v3.67h-20.07Z"/>
  <path class="st1" d="M333.9,176.37c-2.07,0-3.33-1.08-3.33-2.78s1.3-2.74,3.33-2.74,3.27,1.08,3.27,2.74-1.2,2.78-3.27,2.78Z"/>
  <path class="st1" d="M349.15,175.97v-21.73h14.06c7.52,0,11.53,4.01,11.53,10.85s-4.01,10.88-11.53,10.88h-14.06ZM362.47,172.03c4.62,0,7.24-2.19,7.24-6.94s-2.65-6.91-7.24-6.91h-8.51v13.84h8.51Z"/>
  <path class="st1" d="M378.7,175.97v-21.73h20.07v3.67h-15.26v5.12h14.77v3.61h-14.77v5.67h15.26v3.67h-20.07Z"/>
  <path class="st1" d="M402.84,175.97v-21.73h4.81v17.6h13.38v4.13h-18.19Z"/>
  <path class="st1" d="M424.24,175.97v-21.73h4.81v21.73h-4.81Z"/>
  <path class="st1" d="M442.96,175.97l-10.95-21.73h5.8l5.46,11.56c.89,1.82,1.88,3.82,2.68,5.55.8-1.76,1.79-3.76,2.65-5.52l5.49-11.59h5.8l-10.95,21.73h-5.98Z"/>
  <path class="st1" d="M462.82,175.97v-21.73h20.07v3.67h-15.26v5.12h14.77v3.61h-14.77v5.67h15.26v3.67h-20.07Z"/>
  <path class="st1" d="M486.96,175.97v-21.73h15.11c4.9,0,7.58,2.07,7.58,6.26,0,2.74-1.39,4.62-3.67,5.33,1.94.46,2.96,1.76,3.27,4.38l.49,3.61.37,2.16h-4.93l-.34-2.13-.4-2.99c-.28-2.1-1.26-2.9-3.51-2.9h-9.16v8.02h-4.81ZM500.93,164.29c2.43,0,3.7-1.11,3.7-3.21s-1.26-3.17-3.79-3.17h-9.06v6.38h9.16Z"/>
  <path class="st1" d="M514.14,175.97v-21.73h20.07v3.67h-15.26v5.12h14.77v3.61h-14.77v5.67h15.26v3.67h-20.07Z"/>
  <path class="st1" d="M538.28,175.97v-21.73h14.06c7.52,0,11.53,4.01,11.53,10.85s-4.01,10.88-11.53,10.88h-14.06ZM551.6,172.03c4.62,0,7.25-2.19,7.25-6.94s-2.65-6.91-7.25-6.91h-8.51v13.84h8.51Z"/>
  <path class="st1" d="M569.86,176.37c-2.07,0-3.33-1.08-3.33-2.78s1.29-2.74,3.33-2.74,3.27,1.08,3.27,2.74-1.2,2.78-3.27,2.78Z"/>
</svg>